<svg style="position: absolute; width: 0; height: 0; overflow: hidden;" aria-hidden="true" version="1.1" xmlns="http://www.w3.org/2000/svg" xmlns:xlink="http://www.w3.org/1999/xlink">
    <style>
        .default-palette, .palette0 {color: currentColor;
            --color0: #f4f4fd;
            --color1: #8e8f99;
        }
    </style>
    <defs>
        <symbol id="Icon3" viewBox="0 0 264 112" fill="none">
            <rect stroke="var(--color1, #8e8f99)" fill="var(--color0, #f4f4fd)" width="263" height="111" rx="3.5" x="0.5" y="0.5" />
            <g fill="currentColor" clip-path="url(#clip0_1004689_1303)">
                <path d="M129.851 53.9292h2.132v9.595h-2.132z" />
                <path d="M138.38 58.1936h2.132v5.3306h-2.132z" />
                <path d="M121.322 61.392h2.132v2.1322h-2.132z" />
                <path d="M114.926 60.3258h2.132v3.1983h-2.132z" />
                <path d="M103.198 80.5819h51.174c1.766 0 3.198-1.432 3.198-3.1983v-4.2644c0-1.7663-1.432-3.1983-3.198-3.1983h-1.067V43.3343l6.056-5.7366c1.406 0.6928 3.107 0.2722 4.027-0.9974 0.92-1.2691 0.791-3.0167-0.305-4.1369-1.097-1.1203-2.841-1.2874-4.13-0.3956-1.289 0.8922-1.747 2.5835-1.085 4.0041l-4.563 4.3254v-2.4597c0-1.7663-1.432-3.1983-3.198-3.1983h-42.644c-1.767 0-3.199 1.432-3.199 3.1983v31.9833h-1.066c-1.766 0-3.198 1.432-3.198 3.1983v4.2644c0 1.7663 1.432 3.1983 3.198 3.1983zM160.768 33.6732c0.589 0 1.066 0.4773 1.066 1.0661 0 0.5887-0.477 1.0661-1.066 1.0661s-1.066-0.4774-1.066-1.0661c0-0.5888 0.477-1.0661 1.066-1.0661zM106.397 37.9376c0-0.5887 0.477-1.0661 1.066-1.0661h42.644c0.589 0 1.066 0.4774 1.066 1.0661v4.4773l-2.132 2.0261v-4.3712c0-0.5887-0.477-1.0661-1.066-1.0661h-38.38c-0.589 0-1.066 0.4774-1.066 1.0661v26.6527c0 0.5888 0.477 1.0661 1.066 1.0661h38.38c0.589 0 1.066-0.4773 1.066-1.0661V47.3738l2.132-2.0203v24.5674h-44.776zM115.992 51.797c-1.443-41e-4-2.709 0.9568-3.093 2.3472s0.21 2.8652 1.451 3.6013c1.24 0.736 2.82 0.5512 3.856-0.4519l3.706 1.8595c0.43 0.2155 0.953 0.1145 1.273-0.2452l7.877-8.8626 7.744 5.8027c0.416 0.3113 0.996 0.278 1.372-0.0786l6.731-6.3753v16.2623h-36.248V41.1359h36.248v5.3207l-7.543 7.1431-7.809-5.8542c-0.444-0.3321-1.068-0.2697-1.436 0.1442l-7.986 8.9854-2.986-1.493c0.022-0.128 0.036-0.2571 0.041-0.3868 0-1.7662-1.432-3.1983-3.198-3.1983zM117.058 54.9953c0 0.5888-0.478 1.0662-1.066 1.0662-0.589 0-1.066-0.4774-1.066-1.0662 0-0.5887 0.477-1.0661 1.066-1.0661 0.588 0 1.066 0.4774 1.066 1.0661zM123.454 72.0531h10.661v1.0661c0 0.5887-0.477 1.0661-1.066 1.0661h-8.529c-0.588 0-1.066-0.4774-1.066-1.0661zM102.132 73.1192c0-0.5888 0.478-1.0661 1.066-1.0661h18.124v1.0661c0 1.7663 1.432 3.1983 3.198 3.1983h8.529c1.767 0 3.199-1.432 3.199-3.1983v-1.0661h18.124c0.588 0 1.066 0.4773 1.066 1.0661v4.2644c0 0.5888-0.478 1.0661-1.066 1.0661h-51.174c-0.588 0-1.066-0.4773-1.066-1.0661z" />
            </g>
            <defs>
                <clipPath id="clip0_1004689_1303">
                    <rect fill="#fff" transform="translate(100 24)" width="64" height="64" />
                </clipPath>
            </defs>
        </symbol>
        <symbol id="Icon2" viewBox="0 0 264 112" fill="currentColor">
            <rect stroke="var(--color1, #8e8f99)" fill="var(--color0, #f4f4fd)" width="263" height="111" rx="3.5" x="0.5" y="0.5" />
            <path d="M162.593 54.6025C162.59 37.6978 148.883 23.9966 131.978 24s-30.606 13.7109-30.603 30.6157c3e-3 13.3159 8.614 25.1021 21.299 29.1524 0.121 0.0381 0.247 0.0576 0.373 0.0571 0.242-5e-4 0.478-0.0649 0.685-0.1875 0.27-0.1597 0.472-0.4136 0.567-0.7129l7.73-24.5c2.113-0.0107 3.817-1.7329 3.806-3.8457-0.011-2.1133-1.732-3.8174-3.846-3.8066-0.568 24e-4-1.129 0.1333-1.64 0.3828l-10.212-10.2134c-0.507-0.4893-1.314-0.4751-1.803 0.0312-0.478 0.4947-0.478 1.2779 0 1.7725l10.207 10.2183c-0.784 1.5986-0.336 3.5283 1.072 4.6181l-7.365 23.3457c-14.556-5.3618-22.009-21.5078-16.647-36.0634 5.362-14.5557 21.508-22.0088 36.064-16.647 14.555 5.3618 22.008 21.5083 16.647 36.0635-2.62 7.1113-8.002 12.8623-14.925 15.9467l-0.796-3.7485c-0.145-0.689-0.822-1.1294-1.511-0.9834-0.218 0.0464-0.419 0.1485-0.585 0.2964l-7.674 6.8511c-0.527 0.4682-0.573 1.2744-0.105 1.8008 0.153 0.1709 0.348 0.2978 0.567 0.3676l9.797 3.127c0.67 0.2153 1.389-0.1533 1.604-0.8242 0.068-0.2119 0.08-0.4375 0.034-0.6553l-0.782-3.6782c11.328-4.7759 18.684-15.8843 18.657-28.1783zM131.984 53.3272c0.704 0 1.276 0.5712 1.276 1.2753 0 0.7046-0.572 1.2754-1.276 1.2754s-1.275-0.5708-1.275-1.2754c0-0.7041 0.571-1.2753 1.275-1.2753zM136.185 83.0552l4.368-3.8965 1.206 5.6807z" />
            <path d="M130.709 30.3701v2.5508c0 0.7046 0.571 1.2754 1.275 1.2754s1.276-0.5708 1.276-1.2754v-2.5508c0-0.7041-0.572-1.2754-1.276-1.2754s-1.275 0.5713-1.275 1.2754z" />
            <path d="M107.752 53.3271c-0.705 0-1.275 0.5713-1.275 1.2754 0 0.7046 0.57 1.2754 1.275 1.2754h2.551c0.704 0 1.275-0.5708 1.275-1.2754 0-0.7041-0.571-1.2754-1.275-1.2754z" />
            <path d="M156.216 55.8779c0.705 0 1.276-0.5708 1.276-1.2754 0-0.7041-0.571-1.2754-1.276-1.2754h-2.551c-0.704 0-1.275 0.5713-1.275 1.2754 0 0.7046 0.571 1.2754 1.275 1.2754z" />
        </symbol>
        <symbol id="Icon4" viewBox="0 0 264 112" fill="currentColor">
            <rect stroke="var(--color1, #8e8f99)" fill="var(--color0, #f4f4fd)" width="263" height="111" rx="3.5" x="0.5" y="0.5" />
            <path d="M163.948 33.0481c-0.126-0.3851-0.459-0.6666-0.861-0.7254l-3.82-0.5557-1.71-3.4624c-0.359-0.7297-1.555-0.7297-1.913 0l-1.71 3.4624-3.821 0.5559c-0.402 0.0586-0.735 0.3392-0.862 0.7253-0.124 0.3862-0.021 0.8107 0.27 1.0934l2.766 2.6956-0.653 3.8059c-0.068 0.4 0.096 0.8043 0.424 1.0433 0.332 0.2411 0.765 0.2709 1.124 0.081L156.6 39.97l3.418 1.7974c0.155 0.0821 0.327 0.1226 0.497 0.1226 0.22 0 0.441-0.0682 0.627-0.2037 0.328-0.2389 0.493-0.6433 0.423-1.0433l-0.652-3.8059 2.766-2.6956c0.289-0.2837 0.394-0.7072 0.269-1.0934zM159.022 35.702c-0.25 0.2443-0.366 0.5984-0.306 0.9441l0.382 2.2282-2.001-1.0517c-0.156-0.0822-0.326-0.1227-0.497-0.1227s-0.34 0.0405-0.497 0.1227l-2.001 1.0517 0.381-2.2282c0.06-0.3457-0.055-0.6987-0.306-0.9441l-1.62-1.5786 2.238-0.3254c0.348-0.0501 0.647-0.2687 0.803-0.5835l1.001-2.0267 1 2.0267c0.156 0.3146 0.456 0.5334 0.804 0.5835l2.237 0.3254z" />
            <path d="M152.267 65.0444h-2.133v2.1334h2.133z" />
            <path d="M152.267 69.3112h-2.133v2.1334h2.133z" />
            <path d="M154.4 67.1778h-2.133v2.1334h2.133z" />
            <path d="M150.134 67.1778H148v2.1334h2.134z" />
            <path d="M144.8 76.778h-2.133v2.1333h2.133z" />
            <path d="M144.8 81.0446h-2.133v2.1335h2.133z" />
            <path d="M146.934 78.9113H144.8v2.1335h2.134z" />
            <path d="M142.667 78.9113h-2.134v2.1335h2.134z" />
            <path d="M132 72.5113h-2.133v2.1334H132z" />
            <path d="M132 76.778h-2.133v2.1333H132z" />
            <path d="M134.133 74.6445H132v2.1334h2.133z" />
            <path d="M129.867 74.6445h-2.134v2.1334h2.134z" />
            <path d="M111.733 36.2439H109.6v2.1334h2.133z" />
            <path d="M111.733 40.5108H109.6v2.1334h2.133z" />
            <path d="M113.866 38.3774h-2.133v2.1334h2.133z" />
            <path d="M109.6 38.3774h-2.134v2.1334h2.134z" />
            <path d="M149.43 52.3189c-0.575-0.7755-1.419-1.2746-2.377-1.4091-0.962-0.1365-1.912 0.1162-2.68 0.704l-2.503 1.9189-1e-3 11e-4-3.796 2.8342-2.715-1.0816c4.842-2.1728 8.227-7.0166 8.227-12.6402 0-7.646-6.245-13.8669-13.922-13.8669s-13.923 6.2209-13.923 13.8669c0 2.7713 0.829 5.3483 2.241 7.5168l-5.528-0.048c-3e-3 0-6e-3 0-0.01 0-0.017 0-0.031 85e-4-0.047 97e-4-0.105 42e-4-0.209 0.0256-0.31 0.0618-0.026 97e-4-0.052 0.015-0.077 0.0267-0.012 53e-4-0.025 63e-4-0.038 0.0127l-6.466 3.1926c-1e-3 0-2e-3 0-2e-3 1e-3l-3.787 1.821c-0.042 0.0181-0.084 0.0426-0.126 0.0704-1.509 1.0047-2.0236 2.9781-1.197 4.5909 0.441 0.8576 1.191 1.4892 2.112 1.7782 0.355 0.1108 0.718 0.1653 1.079 0.1653 0.579 0 1.153-0.1418 1.678-0.4223l2.776-1.4763 4.528-2.3382 2.714-0.016-10.884 10.8312c-1e-3 11e-4-2e-3 11e-4-3e-3 21e-4l-2.677 2.6667c-0.633 0.6294-0.981 1.4645-0.981 2.3553 0 0.8896 0.348 1.7269 0.981 2.3574 0.649 0.6464 1.504 0.9706 2.358 0.9706 0.856 0 1.709-0.3242 2.361-0.9706l2.628-2.6177 3.482-2.5995 1.801 1.7941-3.523 3.5083c-1e-3 12e-4-2e-3 12e-4-3e-3 22e-4l-2.678 2.6666c-0.632 0.6294-0.98 1.4645-0.98 2.3553 0 0.8896 0.348 1.7269 0.98 2.3574 0.65 0.6464 1.505 0.9707 2.36 0.9707 0.854 0 1.71-0.3243 2.36-0.9707l2.679-2.6667 4.285-4.2666c1e-3-12e-4 1e-3-22e-4 2e-3-33e-4l2.019-2-8e-3-75e-4c0.013-0.0128 0.031-0.0172 0.044-0.0309l10.332-11.3164 6.942 0.9877c0.05 75e-4 0.1 0.0107 0.15 0.0107 0.13 0 0.254-0.0309 0.375-0.0768 0.035-0.0127 0.066-0.0299 0.099-0.0469 0.038-0.0192 0.079-0.0298 0.115-0.0543l6.427-4.2667c0.024-0.016 0.036-0.0417 0.059-0.0587 0.025-0.0202 0.057-0.0287 0.081-0.0512l2.543-2.3819c1.323-1.2398 1.505-3.2707 0.424-4.7235zM104.261 59.5403c-0.347 0.1856-0.74 0.2229-1.117 0.1035-0.373-0.1163-0.676-0.3713-0.853-0.7158-0.322-0.6272-0.136-1.391 0.428-1.8037l2.628-1.2641 0.632 1.8486 0.266 0.7765zM111.255 55.8849l-3.096 1.6-0.511-1.4934-0.367-1.0731 4.053-2.0012zM141.454 42.644c0 1.8368-0.438 3.5692-1.198 5.119l-8.363-3.7984c-0.087-1.1467-0.682-2.1504-1.576-2.7756l2.928-9.7206c4.755 1.5126 8.209 5.9489 8.209 11.1756zM117.876 42.644c0-6.4694 5.289-11.7335 11.789-11.7335 0.506 0 1 0.0426 1.49 0.1045l-2.864 9.5074c-0.038-11e-4-0.075-0.0118-0.114-0.0118-2.065 0-3.745 1.6747-3.745 3.7335 0 2.0586 1.68 3.7334 3.745 3.7334 1.389 0 2.589-0.7669 3.236-1.8892l7.725 3.5095c-2.149 2.8928-5.589 4.7798-9.473 4.7798-6.5 0-11.789-5.2641-11.789-11.7336zM129.789 44.2441c0 0.8821-0.724 1.6-1.612 1.6-0.889 0-1.612-0.7179-1.612-1.6 0-0.8822 0.723-1.6001 1.612-1.6001 0.888 0 1.612 0.7179 1.612 1.6001zM104.93 74.2925c-0.473 0.4683-1.238 0.4673-1.709 11e-4-0.227-0.2272-0.352-0.5268-0.352-0.8458 0-0.3179 0.125-0.6177 0.352-0.8427l1.924-1.9169 1.702 1.695zM111.357 81.7594c-0.472 0.4682-1.238 0.4694-1.709 11e-4-0.228-0.2272-0.352-0.5269-0.352-0.8459 0-0.3179 0.124-0.6176 0.352-0.8426l1.925-1.9179 0.805 0.8011 0.898 0.8939zM118.321 74.8217c-1e-3 1e-3-2e-3 1e-3-3e-3 21e-4l-3.53 3.52-0.806-0.8011-0.898-0.8939 3.527-3.5104c0 0 0 0 0-1e-3 1e-3-11e-4 2e-3-11e-4 3e-3-21e-4 0.08-0.08 0.13-0.176 0.179-0.2709 0.014-0.0278 0.041-0.0513 0.053-0.08 0.033-0.0821 0.038-0.1706 0.051-0.2572 6e-3-0.0491 0.028-0.0948 0.028-0.1451 0-0.0715-0.026-0.1407-0.041-0.2112-0.013-0.064-0.013-0.1292-0.037-0.1909-0.041-0.1003-0.11-0.1888-0.183-0.2753-0.02-0.0235-0.027-0.0533-0.05-0.0757 0 0 0 0-1e-3 0-1e-3-1e-3-1e-3-33e-4-2e-3-43e-4l-3.214-3.2c-0.034-0.0341-0.078-0.048-0.116-0.0768-0.057-0.0437-0.111-0.0842-0.174-0.1152-0.061-0.0299-0.123-0.048-0.187-0.0651-0.068-0.0193-0.134-0.0342-0.206-0.0395-0.065-43e-4-0.126 21e-4-0.191 96e-4-0.071 85e-4-0.138 0.0181-0.208 0.0405-0.067 0.0214-0.126 0.0544-0.188 0.0896-0.04 0.0224-0.085 0.0299-0.122 0.0576l-3.547 2.6476-1.801-1.7942 4.798-4.7723 8.721 8.5773zM131.958 60.7883c-0.03-42e-4-0.059 75e-4-0.09 54e-4-0.078-43e-4-0.153 11e-4-0.231 0.0139-0.06 0.0106-0.118 0.0223-0.176 0.0426-0.068 0.0235-0.13 0.0555-0.193 0.0939-0.06 0.0362-0.114 0.0746-0.166 0.1226-0.026 0.0224-0.057 0.0331-0.08 0.0586l-9.397 10.2914-8.656-8.5132 5.666-5.6364c0.418-0.416 0.42-1.0912 4e-3-1.5094-0.21-0.2101-0.487-0.3136-0.763-0.3125v-1e-3l-4.437 0.0267 0.055-3.215 6.208 0.0534c2.53 2.5878 6.059 4.2017 9.963 4.2017 0.875 0 1.728-0.0906 2.559-0.2454 0.08 0.064 0.159 0.1292 0.259 0.1697l4.819 1.92 0.305 1.5168 0.357 1.7706zM140.041 61.1446l-0.627-3.1158 2.893-2.1601 0.758 1.0048 1.136 1.5083zM147.548 55.4826l-1.676 1.5702-1.862-2.4726 1.663-1.2746c0.31-0.2389 0.701-0.336 1.085-0.2859 0.387 0.0544 0.728 0.256 0.961 0.5685 0.433 0.5835 0.359 1.3974-0.171 1.8944z" />
            <path d="M127.204 61.0881l-4.286-4.2667c-0.415-0.4149-1.089-0.4149-1.505 0l-4.285 4.2667c-0.2 0.2016-0.313 0.4725-0.313 0.7562 0 0.2838 0.112 0.5558 0.313 0.7563l4.285 4.2667c0.208 0.2069 0.481 0.3104 0.753 0.3104s0.545-0.1035 0.752-0.3104l4.286-4.2667c0.201-0.2005 0.315-0.4725 0.315-0.7563 0-0.2837-0.113-0.5557-0.315-0.7562zM122.166 64.606l-2.773-2.7617 2.773-2.7616 2.775 2.7616z" />
            <path d="M134.329 34.1415l-0.516 2.0716c0.142 0.0352 3.476 0.9035 3.476 4.2977h2.133c0-4.0343-3.331-5.9309-5.093-6.3693z" />
            <path d="M139.422 42.644h-2.133v2.1335h2.133z" />
        </symbol>
        <symbol id="Icon1" viewBox="0 0 264 112" fill="currentColor">
            <rect stroke="var(--color1, #8e8f99)" fill="var(--color0, #f4f4fd)" width="263" height="111" rx="3.5" x="0.5" y="0.5" />
            <path d="M161.546 68.1952 144.66 51.1851l1.874-9.231c0.484 0.1888 0.998 0.2875 1.517 0.2912h0.013c2.384 0.0282 4.34-1.882 4.368-4.2665 0.029-2.3845-1.882-4.3404-4.266-4.3687-2.385-0.0281-4.341 1.882-4.369 4.2666-6e-3 0.5102 0.078 1.0174 0.25 1.4982l-9.92 1.2107L117.945 24.32c-0.198-0.2025-0.469-0.3177-0.753-0.32-0.28 15e-4-0.548 0.1129-0.747 0.3104l-3.025 3.008c-0.416 0.4165-0.416 1.0917 0 1.5083l1.628 1.6512c-6.306 11.5958-4.258 25.9556 5.039 35.3258 0.085 0.0816 0.184 0.1476 0.292 0.1952-0.067 0.361-0.102 0.7272-0.104 1.0944v12.3734h-12.8c-2.944 34e-4-5.33 2.3893-5.334 5.3333v2.1333c0 0.5891 0.478 1.0667 1.067 1.0667h49.067c0.589 0 1.066-0.4776 1.066-1.0667V84.8c-3e-3-2.944-2.389-5.3299-5.333-5.3333h-12.8v-5.4838c2.005 0.4206 4.048 0.635 6.097 0.64 4.916-53e-4 9.754-1.2309 14.08-3.5669l1.636 1.6459c0.199 0.2025 0.47 0.3177 0.754 0.32 0.28-15e-4 0.548-0.113 0.746-0.3104l3.025-3.008c0.417-0.4166 0.417-1.0918 0-1.5083zM146.56 36.4661c0.835-0.8309 2.186-0.8272 3.017 82e-4 0.83 0.8353 0.827 2.1861-9e-3 3.0169-0.399 0.3977-0.941 0.6209-1.505 0.6208h-6e-3c-1.178-61e-4-2.128-0.9661-2.122-2.1444 3e-3-0.564 0.229-1.1037 0.629-1.5015zM144.049 43.4752l-1.197 5.8912-2.351-2.3648zM142.837 41.6715l-3.84 3.8176-2.971-2.9867zM148.008 81.6c1.767 0 3.2 1.4327 3.2 3.2v1.0667h-46.933V84.8c0-1.7673 1.432-3.2 3.2-3.2zM133.075 77.3333v2.1334h-10.667v-2.1334zM122.408 75.2v-8.1067c0-2.5877 2.393-4.6933 5.333-4.6933 2.941 0 5.334 2.1056 5.334 4.6933V75.2zM135.208 71.808v-4.7147c0-3.7642-3.349-6.8266-7.467-6.8266-2.662-0.0408-5.151 1.3142-6.562 3.5722-8.115-8.5476-9.943-21.2904-4.557-31.7742l37.204 37.4169c-5.745 2.9224-12.331 3.7452-18.618 2.3264zM157.786 70.4405l-1.503-1.5114-39.102-39.3376-1.509-1.5126 1.509-1.504 15.87 15.9595c8e-3 0 0.012 0.0139 0.02 0.0192L159.3 68.9365z" />
            <path d="M127.751 64.5333h-0.01c-1.767-27e-4-3.202 1.4279-3.204 3.1952-3e-3 1.7673 1.428 3.2021 3.195 3.2048h9e-3c1.768 27e-4 3.203-1.4279 3.205-3.1952 3e-3-1.7673-1.428-3.2021-3.195-3.2048zM128.498 68.4896c-0.201 0.1997-0.473 0.3114-0.757 0.3104-0.589-31e-4-1.064-0.4831-1.061-1.0722 2e-3-0.282 0.115-0.5518 0.315-0.7508 0.198-0.1974 0.466-0.3089 0.746-0.3104 0.59 31e-4 1.065 0.4831 1.062 1.0722-2e-3 0.282-0.115 0.5518-0.315 0.7508z" />
        </symbol>
    </defs>
</svg>